<!-- Generated by IcoMoon.io -->
<svg version="1.1" xmlns="http://www.w3.org/2000/svg" width="32" height="32" viewBox="0 0 32 32">
<path fill="#fff" d="M15.999 9.904c-3.362 0-6.097 2.735-6.097 6.097s2.735 6.097 6.097 6.097c3.362 0 6.097-2.735 6.097-6.097s-2.735-6.097-6.097-6.097zM19.619 14.852l-4.368 4.368c-0.183 0.183-0.424 0.275-0.664 0.275s-0.481-0.092-0.664-0.275l-1.669-1.669c-0.367-0.366-0.367-0.961 0-1.328s0.961-0.367 1.328 0l1.005 1.005 3.704-3.704c0.366-0.367 0.961-0.367 1.328 0s0.367 0.961 0 1.328z"></path>
<path fill="#fff" d="M29.593 8.682l-0.001-0.025c-0.014-0.307-0.023-0.633-0.029-0.994-0.026-1.764-1.429-3.224-3.193-3.322-3.679-0.205-6.525-1.405-8.957-3.775l-0.021-0.020c-0.793-0.727-1.99-0.727-2.783 0l-0.021 0.020c-2.432 2.37-5.278 3.57-8.957 3.776-1.764 0.098-3.167 1.558-3.193 3.322-0.005 0.359-0.015 0.685-0.029 0.994l-0.001 0.058c-0.072 3.752-0.16 8.421 1.402 12.659 0.859 2.331 2.16 4.356 3.866 6.022 1.943 1.896 4.489 3.402 7.565 4.475 0.1 0.035 0.204 0.063 0.31 0.084 0.149 0.030 0.3 0.045 0.45 0.045s0.301-0.015 0.45-0.045c0.106-0.021 0.211-0.050 0.311-0.085 3.073-1.075 5.616-2.581 7.557-4.477 1.706-1.666 3.006-3.692 3.866-6.023 1.568-4.251 1.479-8.929 1.408-12.687zM16 23.975c-4.397 0-7.975-3.577-7.975-7.975s3.577-7.975 7.975-7.975c4.397 0 7.975 3.577 7.975 7.975s-3.578 7.975-7.975 7.975z"></path>
</svg>
