<svg aria-hidden="true" style="position: absolute; width: 0; height: 0; overflow: hidden;" version="1.1" xmlns="http://www.w3.org/2000/svg" xmlns:xlink="http://www.w3.org/1999/xlink">
<defs>
<symbol id="icon-line" viewBox="0 0 55 32">
<path stroke-linejoin="miter" stroke-linecap="round" stroke-miterlimit="4" stroke-width="3.7346" d="M1.869 29.435c14.886 1.656 42.368 2.735 44.747-26.036"></path>
<path stroke-linejoin="miter" stroke-linecap="round" stroke-miterlimit="4" stroke-width="3.7346" d="M38.363 9.284l8.536-6.564 5.855 9.124"></path>
</symbol>
<symbol id="icon-settings" viewBox="0 0 32 32">
<path fill="#fff" style="fill: var(--color1, #fff)" d="M31.041 19.507l-2.941-2.3c0.037-0.355 0.069-0.769 0.069-1.208s-0.031-0.853-0.069-1.208l2.944-2.301c0.547-0.432 0.696-1.199 0.348-1.837l-3.059-5.292c-0.327-0.597-1.043-0.904-1.769-0.636l-3.471 1.393c-0.665-0.48-1.363-0.885-2.084-1.209l-0.528-3.681c-0.087-0.699-0.695-1.227-1.413-1.227h-6.133c-0.719 0-1.325 0.528-1.411 1.216l-0.529 3.695c-0.699 0.315-1.385 0.715-2.080 1.209l-3.48-1.397c-0.652-0.252-1.432 0.031-1.756 0.625l-3.063 5.299c-0.361 0.611-0.212 1.404 0.347 1.847l2.941 2.3c-0.047 0.449-0.069 0.84-0.069 1.207s0.023 0.757 0.069 1.208l-2.944 2.301c-0.547 0.433-0.695 1.2-0.347 1.837l3.059 5.292c0.327 0.596 1.036 0.905 1.769 0.636l3.471-1.393c0.664 0.479 1.361 0.884 2.083 1.209l0.528 3.68c0.087 0.701 0.693 1.229 1.413 1.229h6.133c0.719 0 1.327-0.528 1.412-1.216l0.529-3.693c0.699-0.316 1.384-0.715 2.080-1.211l3.48 1.397c0.168 0.065 0.343 0.099 0.523 0.099 0.517 0 0.993-0.283 1.233-0.723l3.072-5.32c0.341-0.624 0.192-1.391-0.357-1.827zM16.001 21.333c-2.941 0-5.333-2.392-5.333-5.333s2.392-5.333 5.333-5.333c2.941 0 5.333 2.392 5.333 5.333s-2.392 5.333-5.333 5.333z"></path>
</symbol>
<symbol id="icon-user" viewBox="0 0 32 32">
<path fill="#fff" style="fill: var(--color1, #fff)" d="M15.77 15.415c2.118 0 3.951-0.759 5.45-2.258s2.258-3.332 2.258-5.449c0-2.117-0.76-3.951-2.258-5.449s-3.332-2.258-5.449-2.258c-2.118 0-3.951 0.76-5.45 2.258s-2.258 3.332-2.258 5.449c0 2.118 0.76 3.951 2.258 5.45s3.332 2.258 5.449 2.258z"></path>
<path fill="#fff" style="fill: var(--color1, #fff)" d="M29.258 24.607c-0.043-0.624-0.131-1.304-0.259-2.022-0.13-0.724-0.297-1.408-0.497-2.033-0.207-0.646-0.488-1.284-0.836-1.896-0.361-0.635-0.785-1.188-1.26-1.642-0.497-0.476-1.106-0.858-1.81-1.137-0.702-0.278-1.479-0.418-2.311-0.418-0.327 0-0.643 0.134-1.253 0.531-0.375 0.245-0.815 0.528-1.305 0.841-0.419 0.267-0.987 0.517-1.688 0.744-0.684 0.221-1.379 0.334-2.065 0.334s-1.38-0.112-2.065-0.334c-0.701-0.226-1.269-0.477-1.687-0.744-0.486-0.31-0.925-0.594-1.306-0.842-0.609-0.397-0.926-0.531-1.252-0.531-0.832 0-1.609 0.141-2.311 0.419-0.704 0.279-1.313 0.661-1.811 1.137-0.475 0.455-0.899 1.008-1.26 1.642-0.347 0.612-0.629 1.249-0.836 1.896-0.2 0.625-0.367 1.309-0.497 2.033-0.129 0.717-0.216 1.398-0.259 2.023-0.042 0.612-0.064 1.248-0.064 1.89 0 1.67 0.531 3.023 1.578 4.020 1.034 0.984 2.403 1.483 4.067 1.483h15.408c1.664 0 3.032-0.499 4.066-1.483 1.047-0.997 1.578-2.349 1.578-4.020-0-0.645-0.022-1.281-0.065-1.89z"></path>
</symbol>
<symbol id="icon-secured" viewBox="0 0 32 32">
<path fill="#fff" style="fill: var(--color1, #fff)" d="M15.999 9.904c-3.362 0-6.097 2.735-6.097 6.097s2.735 6.097 6.097 6.097c3.362 0 6.097-2.735 6.097-6.097s-2.735-6.097-6.097-6.097zM19.619 14.852l-4.368 4.368c-0.183 0.183-0.424 0.275-0.664 0.275s-0.481-0.092-0.664-0.275l-1.669-1.669c-0.367-0.366-0.367-0.961 0-1.328s0.961-0.367 1.328 0l1.005 1.005 3.704-3.704c0.366-0.367 0.961-0.367 1.328 0s0.367 0.961 0 1.328z"></path>
<path fill="#fff" style="fill: var(--color1, #fff)" d="M29.593 8.682l-0.001-0.025c-0.014-0.307-0.023-0.633-0.029-0.994-0.026-1.764-1.429-3.224-3.193-3.322-3.679-0.205-6.525-1.405-8.957-3.775l-0.021-0.020c-0.793-0.727-1.99-0.727-2.783 0l-0.021 0.020c-2.432 2.37-5.278 3.57-8.957 3.776-1.764 0.098-3.167 1.558-3.193 3.322-0.005 0.359-0.015 0.685-0.029 0.994l-0.001 0.058c-0.072 3.752-0.16 8.421 1.402 12.659 0.859 2.331 2.16 4.356 3.866 6.022 1.943 1.896 4.489 3.402 7.565 4.475 0.1 0.035 0.204 0.063 0.31 0.084 0.149 0.030 0.3 0.045 0.45 0.045s0.301-0.015 0.45-0.045c0.106-0.021 0.211-0.050 0.311-0.085 3.073-1.075 5.616-2.581 7.557-4.477 1.706-1.666 3.006-3.692 3.866-6.023 1.568-4.251 1.479-8.929 1.408-12.687zM16 23.975c-4.397 0-7.975-3.577-7.975-7.975s3.577-7.975 7.975-7.975c4.397 0 7.975 3.577 7.975 7.975s-3.578 7.975-7.975 7.975z"></path>
</symbol>
<symbol id="icon-code" viewBox="0 0 32 32">
<path fill="#fff" style="fill: var(--color1, #fff)" d="M16.041-0.063l-13.853 8v16l13.853 8 13.854-8v-16l-13.854-8zM10.691 18.46l-1.327 1.327-3.849-3.849 3.849-3.849 1.327 1.327-2.522 2.522 2.522 2.522zM14.672 20.773l-1.678-0.839 4.416-8.833 1.678 0.839-4.416 8.833zM22.717 19.786l-1.327-1.327 2.522-2.522-2.522-2.522 1.327-1.327 3.849 3.849-3.849 3.849z"></path>
</symbol>
</defs>
</svg>
